<svg xmlns="http://www.w3.org/2000/svg" viewBox="0 0 350 230.37624267573128" preserveAspectRatio="xMidYMid meet" class="css-8aabad" id="fedadace"><defs id="SvgjsDefs1996"/><g id="SvgjsG1997" featurekey="monogramFeature-0" transform="matrix(4.296102046966553,0,0,4.296102046966553,104.11341484185556,-77.4544196688036)" fill="#fff"><path d="M17.153 18.029000000000003 c7.17 0 13.003 5.8321 13.003 13.003 s-5.8334 13.003 -13.003 13.003 l-9.5509 0 l0 15.994 l-1.1503 0 l0 -40.849 l-3.4522 0 l0 -1.1509 l14.153 0 z M7.6026 19.18 l0 23.704 l4.8329 0 l0 -23.704 l-4.8329 0 z M17.153 42.884 c6.5352 0 11.852 -5.3165 11.852 -11.852 s-5.3171 -11.852 -11.852 -11.852 l-3.5671 0 l0 23.704 l3.5671 0 z"/></g><g id="SvgjsG1998" featurekey="nameFeature-0" transform="matrix(0.8209795355796814,0,0,0.8209795355796814,-2.791330094861333,197.04447376389925)" fill="#fff"><path d="M13.96 12 c6.7 0 9.44 3.12 9.44 8.48 c0 5.38 -2.74 8.5 -9.44 8.5 l-8.06 0 l0 10.42 c0 0.36 -0.24 0.6 -0.6 0.6 l-1.3 0 c-0.36 0 -0.6 -0.24 -0.6 -0.6 l0 -26.8 c0 -0.36 0.24 -0.6 0.6 -0.6 l9.96 0 z M14.1 26.619999999999997 c3.98 0 6.84 -1.16 6.84 -6.14 s-2.86 -6.12 -6.84 -6.12 l-8.2 0 l0 12.26 l8.2 0 z M46.75 28.7 l5.6 10.6 c0.22 0.42 0.02 0.7 -0.44 0.7 l-1.48 0 c-0.32 0 -0.54 -0.14 -0.7 -0.44 l-5.56 -10.58 l-0.58 0 l-8.06 0 l0 10.42 c0 0.36 -0.24 0.6 -0.6 0.6 l-1.3 0 c-0.36 0 -0.6 -0.24 -0.6 -0.6 l0 -26.8 c0 -0.36 0.24 -0.6 0.6 -0.6 l9.96 0 c6.7 0 9.44 3.12 9.44 8.48 c0 4.44 -1.86 7.34 -6.28 8.22 z M35.53 26.619999999999997 l8.2 0 c3.98 0 6.84 -1.16 6.84 -6.14 s-2.86 -6.12 -6.84 -6.12 l-8.2 0 l0 12.26 z M80.26 37.64 c0.36 0 0.6 0.24 0.6 0.6 l0 1.16 c0 0.36 -0.24 0.6 -0.6 0.6 l-16.9 0 c-0.36 0 -0.6 -0.24 -0.6 -0.6 l0 -26.8 c0 -0.36 0.24 -0.6 0.6 -0.6 l16.86 0 c0.36 0 0.6 0.24 0.6 0.6 l0 1.16 c0 0.36 -0.24 0.6 -0.6 0.6 l-14.96 0 l0 9.62 l13.86 0 c0.36 0 0.6 0.24 0.6 0.6 l0 1.16 c0 0.36 -0.24 0.6 -0.6 0.6 l-13.86 0 l0 11.3 l15 0 z M130.62000000000003 12 c0.36 0 0.6 0.24 0.6 0.6 l0 1.16 c0 0.36 -0.24 0.6 -0.6 0.6 l-8.9 0 l0 25.04 c0 0.36 -0.24 0.6 -0.6 0.6 l-1.3 0 c-0.36 0 -0.6 -0.24 -0.6 -0.6 l0 -25.04 l-8.9 0 c-0.36 0 -0.6 -0.24 -0.6 -0.6 l0 -1.16 c0 -0.36 0.24 -0.6 0.6 -0.6 l20.3 0 z M160.15 12.48 c0.14 -0.36 0.36 -0.48 0.68 -0.48 l1.26 0 c0.44 0 0.64 0.28 0.48 0.68 l-10.32 26.84 c-0.12 0.32 -0.38 0.48 -0.7 0.48 l-1.48 0 c-0.32 0 -0.62 -0.16 -0.74 -0.48 l-10.32 -26.84 c-0.16 -0.4 0.04 -0.68 0.48 -0.68 l1.26 0 c0.32 0 0.54 0.12 0.68 0.48 l9.36 24.58 z M185.36 40.52 c-7.92 0 -14.3 -6.4 -14.3 -14.4 c0 -8.04 6.38 -14.44 14.3 -14.44 c7.88 0 14.26 6.4 14.26 14.44 c0 8 -6.38 14.4 -14.26 14.4 z M185.36 38.22 c6.62 0 11.86 -5.36 11.86 -12.1 c0 -6.78 -5.24 -12.14 -11.86 -12.14 c-6.66 0 -11.9 5.36 -11.9 12.14 c0 6.74 5.24 12.1 11.9 12.1 z M227.35000000000002 12 c0.36 0 0.6 0.24 0.6 0.6 l0 17.96 c0 6.82 -4.1 10.02 -9.5 10.02 c-5.34 0 -9.3 -2.98 -9.6 -9.42 c-0.02 -0.4 0.24 -0.6 0.6 -0.6 l1.28 0 c0.36 0 0.6 0.2 0.6 0.6 c0.3 4.62 3.06 7.1 7.12 7.1 c4.04 0 7 -2.56 7 -7.7 l0 -16.2 l-12.14 0 c-0.36 0 -0.6 -0.24 -0.6 -0.6 l0 -1.16 c0 -0.36 0.24 -0.6 0.6 -0.6 l14.04 0 z M259.44 12 c0.36 0 0.6 0.24 0.6 0.6 l0 16.08 c0 7.88 -4 11.9 -11.08 11.9 c-7.1 0 -11.08 -4.02 -11.08 -11.9 l0 -16.08 c0 -0.36 0.24 -0.6 0.6 -0.6 l1.3 0 c0.36 0 0.6 0.24 0.6 0.6 l0 16.08 c0 6.66 3.44 9.58 8.58 9.58 c5.12 0 8.58 -2.92 8.58 -9.58 l0 -16.08 c0 -0.36 0.24 -0.6 0.6 -0.6 l1.3 0 z M309.34 39.28 c0.28 0.4 0.12 0.72 -0.36 0.72 l-1.66 0 c-0.32 0 -0.52 -0.08 -0.72 -0.36 l-10.24 -13.44 l-3.96 4.3 l0 8.9 c0 0.36 -0.24 0.6 -0.6 0.6 l-1.3 0 c-0.36 0 -0.6 -0.24 -0.6 -0.6 l0 -26.8 c0 -0.36 0.24 -0.6 0.6 -0.6 l1.3 0 c0.36 0 0.6 0.24 0.6 0.6 l0 14.5 l13.5 -14.78 c0.2 -0.24 0.44 -0.32 0.72 -0.32 l1.82 0 c0.52 0 0.7 0.36 0.32 0.72 l-10.82 11.74 z M332.33 28.7 l5.6 10.6 c0.22 0.42 0.02 0.7 -0.44 0.7 l-1.48 0 c-0.32 0 -0.54 -0.14 -0.7 -0.44 l-5.56 -10.58 l-0.58 0 l-8.06 0 l0 10.42 c0 0.36 -0.24 0.6 -0.6 0.6 l-1.3 0 c-0.36 0 -0.6 -0.24 -0.6 -0.6 l0 -26.8 c0 -0.36 0.24 -0.6 0.6 -0.6 l9.96 0 c6.7 0 9.44 3.12 9.44 8.48 c0 4.44 -1.86 7.34 -6.28 8.22 z M321.10999999999996 26.619999999999997 l8.2 0 c3.98 0 6.84 -1.16 6.84 -6.14 s-2.86 -6.12 -6.84 -6.12 l-8.2 0 l0 12.26 z M358 9.8 c-0.44 0 -0.68 -0.24 -0.48 -0.68 l2.4 -5.04 c0.16 -0.36 0.36 -0.48 0.68 -0.48 l0.72 0 c0.44 0 0.68 0.24 0.48 0.68 l-2.4 5.04 c-0.16 0.36 -0.36 0.48 -0.68 0.48 l-0.72 0 z M370.06 39.32 c0.16 0.4 -0.04 0.68 -0.48 0.68 l-1.26 0 c-0.32 0 -0.54 -0.12 -0.68 -0.48 l-2.3 -6.06 l-14.12 0 l-2.3 6.06 c-0.14 0.36 -0.36 0.48 -0.68 0.48 l-1.26 0 c-0.44 0 -0.64 -0.28 -0.48 -0.68 l10.32 -26.84 c0.12 -0.32 0.42 -0.48 0.74 -0.48 l1.48 0 c0.32 0 0.58 0.16 0.7 0.48 z M352.12 31.14 l12.32 0 l-6.16 -16.2 z M388.07 24.46 c5.52 1.18 10.26 2.7 10.26 8.52 c0 4.26 -3.06 7.62 -10.14 7.62 c-5.84 0 -9.66 -2.24 -10.04 -6.38 c-0.04 -0.4 0.2 -0.74 0.56 -0.74 l1.36 0 c0.36 0 0.58 0.3 0.6 0.62 c0.26 2.54 3.06 4.2 7.52 4.2 c4.96 0 7.66 -1.74 7.66 -5.36 c0 -4.3 -3.32 -4.96 -7.78 -6.06 c-5.12 -1.26 -9.18 -2.84 -9.18 -8.16 c0 -4.22 3.02 -7.06 9 -7.06 c5.64 0 9.16 2.18 9.58 6.3 c0.04 0.4 -0.2 0.56 -0.56 0.56 l-1.26 0 c-0.36 0 -0.58 -0.12 -0.6 -0.44 c-0.26 -2.44 -2.92 -4.18 -7.18 -4.18 c-3.92 0 -6.6 1.58 -6.6 4.82 c0 3.42 2.7 4.84 6.8 5.74 z M429.12 12 c0.36 0 0.6 0.24 0.6 0.6 l0 16.08 c0 7.88 -4 11.9 -11.08 11.9 c-7.1 0 -11.08 -4.02 -11.08 -11.9 l0 -16.08 c0 -0.36 0.24 -0.6 0.6 -0.6 l1.3 0 c0.36 0 0.6 0.24 0.6 0.6 l0 16.08 c0 6.66 3.44 9.58 8.58 9.58 c5.12 0 8.58 -2.92 8.58 -9.58 l0 -16.08 c0 -0.36 0.24 -0.6 0.6 -0.6 l1.3 0 z"/></g></svg>